<svg xmlns="http://www.w3.org/2000/svg" viewBox="0 0 153.92 130.26"><defs><style>.cls-1{fill:#2b9caf;}.cls-2{fill:#34c4e9;}.cls-3{fill:#8ad5e8;}</style></defs><g id="Layer_2" data-name="Layer 2"><g id="Layer_1-2" data-name="Layer 1"><path class="cls-1" d="M46.25,129A67.14,67.14,0,0,1,8,97.73a67.41,67.41,0,0,1-5.83-49A67.34,67.34,0,0,1,31.89,9.41a67.06,67.06,0,0,1,48.75-7.8c-.46,2-.92,4-1.34,6A60,60,0,0,0,8.14,50.36a60.87,60.87,0,0,0,5.31,44.43,61,61,0,0,0,34.64,28.39c-.65,1.93-1.26,3.9-1.84,5.86"/><path class="cls-2" d="M136.26,14.56A84.87,84.87,0,0,1,151.58,86c-5.7-1.4-11.46-2.83-17.24-4.24a66.86,66.86,0,0,0-12.06-56.18c4.7-3.65,9.38-7.28,14-11"/><path class="cls-3" d="M57.56,127.42c23.94,4.6,50.58-7.1,63.39-27.85s11.31-49.82-3.57-69.14c.48-.37,1-.72,1.46-1.11,15.31,19.91,16.85,49.85,3.69,71.21S81.87,134,57.21,129.24c.13-.62.24-1.22.35-1.82"/><path class="cls-3" d="M101.16,92.08l-.3-.3-7.13,7.14.17.17L95.79,101c1.22,1.22,3.8.6,5.77-1.36s2.58-4.56,1.37-5.77l-1.77-1.77Z"/><path class="cls-3" d="M61.16,31A27.82,27.82,0,1,0,76.55,82L92,97.2l7.14-7.13L83.78,75A27.78,27.78,0,0,0,61.16,31m.38,47.37A19.56,19.56,0,1,1,81.09,58.84,19.55,19.55,0,0,1,61.54,78.39"/><path class="cls-3" d="M64.9,46.74,51.24,63.92a1.32,1.32,0,0,0,2.07,1.64L67,48.38a1.33,1.33,0,0,0-.22-1.86,1.31,1.31,0,0,0-1.85.22"/><path class="cls-3" d="M70.63,52.46,57,69.65a1.33,1.33,0,0,0,.22,1.86A1.32,1.32,0,0,0,59,71.29L72.7,54.11a1.33,1.33,0,0,0-.22-1.86,1.32,1.32,0,0,0-1.85.21"/></g></g></svg>