<svg xmlns="http://www.w3.org/2000/svg" viewBox="0 0 153.92 130.26"><defs><style>.cls-1{fill:#2b9caf;}.cls-2{fill:#34c4e9;}.cls-3{fill:#8ad5e8;}</style></defs><g id="Layer_2" data-name="Layer 2"><g id="Layer_1-2" data-name="Layer 1"><path class="cls-1" d="M46.25,129A67.14,67.14,0,0,1,8,97.73a67.41,67.41,0,0,1-5.83-49A67.34,67.34,0,0,1,31.89,9.41a67.06,67.06,0,0,1,48.75-7.8c-.46,2-.92,4-1.34,6A60,60,0,0,0,8.14,50.36a60.87,60.87,0,0,0,5.31,44.43,61,61,0,0,0,34.64,28.39c-.65,1.93-1.26,3.9-1.84,5.86"/><path class="cls-2" d="M136.26,14.56A84.87,84.87,0,0,1,151.58,86c-5.7-1.4-11.46-2.83-17.24-4.24a66.82,66.82,0,0,0-12.06-56.18c4.7-3.65,9.39-7.28,14-11"/><path class="cls-3" d="M57.56,127.42c23.94,4.6,50.58-7.1,63.39-27.85s11.31-49.82-3.57-69.14c.48-.37,1-.72,1.46-1.11,15.31,19.91,16.85,49.85,3.69,71.21S81.87,134,57.21,129.24c.13-.62.24-1.22.35-1.82"/><path class="cls-3" d="M101.28,48.13a2.86,2.86,0,0,0-1-5.17L94.53,41a1.6,1.6,0,0,1-1-2.15l2.21-5.62a3.13,3.13,0,0,0-.17-3,3,3,0,0,0-3.14-1.12l-6,1a1.62,1.62,0,0,1-1.89-1.44l-.66-6a2.87,2.87,0,0,0-2.75-2.87,3.53,3.53,0,0,0-2.08.77l-4.83,3.63a1.64,1.64,0,0,1-2.34-.4l-3.37-5A3.14,3.14,0,0,0,66,17.25a3,3,0,0,0-2.69,1.95l-2.6,5.45a1.63,1.63,0,0,1-2.25.74l-5.32-2.87a3,3,0,0,0-3.65.31,3.26,3.26,0,0,0-.82,2.48l.24,6a1.61,1.61,0,0,1-.45,1.2,1.65,1.65,0,0,1-1.21.5L41.12,33a2.85,2.85,0,0,0-2.6,4.55l3,5.24A1.61,1.61,0,0,1,41.7,44a1.65,1.65,0,0,1-.84,1l-5.38,2.74a3.13,3.13,0,0,0-1.87,2.56A3.08,3.08,0,0,0,35.23,53l5.1,3.23a1.64,1.64,0,0,1,.75,1.07,1.7,1.7,0,0,1-.28,1.27l-3.5,4.92a2.86,2.86,0,0,0,2.23,4.78l6,.49A1.62,1.62,0,0,1,47,70.65l-.8,6a3.29,3.29,0,0,0,.67,2.65,3,3,0,0,0,3.53.55L56,77.47a1.64,1.64,0,0,1,2.18.94l2.07,5.67A3,3,0,0,0,63,86.29,3.26,3.26,0,0,0,65.45,85l3.82-4.67a1.64,1.64,0,0,1,1.27-.61,1.61,1.61,0,0,1,1.1.43l4.47,4.06a3.4,3.4,0,0,0,2.25,1,2.86,2.86,0,0,0,2.76-2.61l1.21-5.91a1.64,1.64,0,0,1,2-1.26l5.85,1.52a4.19,4.19,0,0,0,1,.14A2.75,2.75,0,0,0,93.5,76a3.2,3.2,0,0,0,.37-2.87l-1.67-5.8A1.59,1.59,0,0,1,92.35,66a1.63,1.63,0,0,1,1.05-.77l5.88-1.37a3.1,3.1,0,0,0,2.43-2,3.14,3.14,0,0,0-.93-3L96.6,54.46a1.66,1.66,0,0,1-.47-1.21,1.62,1.62,0,0,1,.58-1.16Zm-6.54,8.1,4.19,4.36a1,1,0,0,1,.32.52,1,1,0,0,1-.55.26l-5.89,1.38a4.16,4.16,0,0,0-2.68,2,4.22,4.22,0,0,0-.4,3.3l1.68,5.8a1.08,1.08,0,0,1,0,.6,1.27,1.27,0,0,1-.62,0L85,72.88a4.45,4.45,0,0,0-1.08-.14,4.16,4.16,0,0,0-4.1,3.36L78.61,82a1,1,0,0,1-.25.56,1.06,1.06,0,0,1-.53-.31l-4.47-4.06a4.18,4.18,0,0,0-6.08.46l-3.82,4.67a1,1,0,0,1-.48.38,1,1,0,0,1-.32-.52l-2.07-5.67A4.17,4.17,0,0,0,55,75.11l-5.55,2.36a1.38,1.38,0,0,1-.51.13h-.09a.92.92,0,0,1-.06-.61l.81-6a4.19,4.19,0,0,0-3.83-4.75l-6-.48a1.07,1.07,0,0,1-.58-.18.93.93,0,0,1,.23-.56l3.5-4.93a4.19,4.19,0,0,0-1.18-6L36.6,50.87c-.34-.21-.43-.39-.43-.42a1,1,0,0,1,.47-.39L42,47.32a4.18,4.18,0,0,0,1.74-5.85l-3-5.23a1,1,0,0,1-.19-.58,1,1,0,0,1,.6-.12h0l6.09.07a4.15,4.15,0,0,0,3-1.28,4.19,4.19,0,0,0,1.16-3.09l-.24-6c0-.41.08-.58.16-.61a1.19,1.19,0,0,1,.53.18l5.32,2.87a4.32,4.32,0,0,0,2,.51A4.15,4.15,0,0,0,63,25.76l2.59-5.46c.18-.37.35-.48.37-.48s.22.08.45.42l3.37,5a4.18,4.18,0,0,0,6,1l4.83-3.63a1.16,1.16,0,0,1,.55-.26,1,1,0,0,1,.2.59L82,29a4.19,4.19,0,0,0,4.85,3.69l6-1a1.13,1.13,0,0,1,.61,0,.94.94,0,0,1-.09.6L91.14,38a4.19,4.19,0,0,0,2.57,5.53l5.73,1.91a1.18,1.18,0,0,1,.53.31s-.07.23-.37.49l-4.57,4a4.19,4.19,0,0,0-.29,6.09"/><path class="cls-3" d="M94.79,79.8,89,78.29a2.88,2.88,0,0,0-3.59,2.24l-1,5.08,17.1,19L102.77,93l11.89-.4L95.12,71a3.31,3.31,0,0,0,.12.87l1.68,5.8c.47,1.63-.49,2.61-2.13,2.18"/><path class="cls-3" d="M45.18,75.13a2.89,2.89,0,0,0-2.66-3.29l-.87-.08L20.87,90.5l11.56,1.36.39,11.89,23.52-21.2-.1-.27a2.89,2.89,0,0,0-3.88-1.68L46.8,83c-1.56.67-2.65-.16-2.42-1.84Z"/><path class="cls-3" d="M57.18,41.81a10.91,10.91,0,1,0,10.91-10.9,10.9,10.9,0,0,0-10.91,10.9"/><path class="cls-3" d="M61.77,53.75A10.25,10.25,0,0,0,51.52,64v5H84.65V64A10.25,10.25,0,0,0,74.4,53.75ZM72.15,67.22H64L61.67,54.87c.23,0,.46,0,.7,0H73.81c.23,0,.46,0,.69,0Z"/><path class="cls-3" d="M69.37,58.92l1.27,8.3h1.51L74.5,54.87c-.23,0-.46,0-.69,0H62.37c-.24,0-.47,0-.7,0L64,67.22h1.52l1.26-8.3h0l-1.24-2.28h5l-1.24,2.28Z"/></g></g></svg>